# xmcd
#
# Track frame offsets:
#	150
#	14333
#	27600
#	41158
#	52558
#	69025
#	82135
#	96200
#	112875
#	127092
#	140497
#	155079
#	168806
#	182706
#	195346
#	208759
#	221152
#	236172
#	250114
#	262372
#	276312
#	289227
#
# Disc length: 4056
#
# Revision: 2
# Processed by: cddbd v1.5.1PL0 Copyright (c) Steve Scherf et al.
# Submitted via: CDex 1.40Beta8
# Normalized: r1:DSETVAR1
#
DISCID=4e0fd616
DTITLE=Various Artist - Mean Black Cat Blues
DYEAR=2001
DGENRE=Blues
TTITLE0=Freeman Stowers - Railroad Blues
TTITLE1=Clifford Gibson - Stop Your Rambling
TTITLE2=Blind Lemon Jefferson - Matchbox Blues
TTITLE3=Sam Collins - Jailhouse Blues
TTITLE4=Cannon's Jug Stompers - Minglewood Blues
TTITLE5=Ed Bell - Mean Conductor Blues
TTITLE6=Freddie Spruell - Tom Cat Blues
TTITLE7=Tommy Johnson - Canned Heat Blues
TTITLE8=William Harris - Bullfrog Blues
TTITLE9=Buddy Boy Hawkins - Voice Throwing Blues
TTITLE10=Barbecue Bob - Barbecue Blues
TTITLE11=Teddy Darby - Lawdy Lawdy Worried Blues
TTITLE12=Sleepy John Estes - Milk Cow Blues
TTITLE13=Skip James - I'm So Glad
TTITLE14=Bo Carter - Blue Runner Blues
TTITLE15=Willard Ramblin' Thomas - So Lonesome
TTITLE16=King Solomon Hill - The Gone Dead Train
TTITLE17=Kansas Joe McCay and Memphis Minnie - Joliet Bound Blues
TTITLE18=Charley Patton - Revenue Man Blues
TTITLE19=Big Joe Williams - Little Leg Woman
TTITLE20=Robert Petway - Catfish Blues
TTITLE21=Blind Willie Johnson - Dark Was the Night
EXTD=YEAR: 2001 ID3G: 0
EXTT0=
EXTT1=
EXTT2=
EXTT3=
EXTT4=
EXTT5=
EXTT6=
EXTT7=
EXTT8=
EXTT9=
EXTT10=
EXTT11=
EXTT12=
EXTT13=
EXTT14=
EXTT15=
EXTT16=
EXTT17=
EXTT18=
EXTT19=
EXTT20=
EXTT21=
PLAYORDER=
